<svg width="20" height="20" viewBox="0 0 20 20" fill="none" xmlns="http://www.w3.org/2000/svg">
<g clip-path="url(#clip0_436_1722)">
<path d="M7 1C7.55228 1 8 1.44771 8 2V3H12V2C12 1.44771 12.4477 1 13 1C13.5523 1 14 1.44771 14 2V3H17C18.1046 3 19 3.89543 19 5V18C19 19.1046 18.1046 20 17 20H3C1.89543 20 1 19.1046 1 18V5C1 3.89543 1.89543 3 3 3H6V2C6 1.44771 6.44772 1 7 1ZM6 5H3V8H17V5H14V6C14 6.55228 13.5523 7 13 7C12.4477 7 12 6.55228 12 6V5H8V6C8 6.55228 7.55228 7 7 7C6.44772 7 6 6.55228 6 6V5ZM17 10H3V18H17V10Z" fill="#353535"/>
</g>
<defs>
<clipPath id="clip0_436_1722">
<rect width="18" height="19" fill="white" transform="translate(1 1)"/>
</clipPath>
</defs>
</svg>
