<svg width="30" height="30" viewBox="0 0 30 30" fill="none" xmlns="http://www.w3.org/2000/svg">
<path d="M12.2476 10.299C12.2476 9.5816 12.8292 9 13.5466 9H17.4437C18.1612 9 18.7428 9.5816 18.7428 10.299V11.5981H20.0351C20.0391 11.598 20.0431 11.598 20.0472 11.5981H21.3408C21.6996 11.5981 21.9904 11.8889 21.9904 12.2476C21.9904 12.6063 21.6996 12.8971 21.3408 12.8971H20.6466L20.0832 20.7839C20.0347 21.4637 19.469 21.9904 18.7875 21.9904H12.2029C11.5213 21.9904 10.9557 21.4637 10.9071 20.7839L10.3438 12.8971H9.64952C9.2908 12.8971 9 12.6063 9 12.2476C9 11.8889 9.2908 11.5981 9.64952 11.5981H10.9432C10.9472 11.598 10.9512 11.598 10.9553 11.5981H12.2476V10.299ZM13.5466 11.5981H17.4437V10.299H13.5466V11.5981ZM11.6461 12.8971L12.2029 20.6913H18.7875L19.3442 12.8971H11.6461ZM14.1961 14.1961C14.5549 14.1961 14.8457 14.4869 14.8457 14.8457V18.7428C14.8457 19.1015 14.5549 19.3923 14.1961 19.3923C13.8374 19.3923 13.5466 19.1015 13.5466 18.7428V14.8457C13.5466 14.4869 13.8374 14.1961 14.1961 14.1961ZM16.7942 14.1961C17.1529 14.1961 17.4437 14.4869 17.4437 14.8457V18.7428C17.4437 19.1015 17.1529 19.3923 16.7942 19.3923C16.4355 19.3923 16.1447 19.1015 16.1447 18.7428V14.8457C16.1447 14.4869 16.4355 14.1961 16.7942 14.1961Z" fill="#DA4167"/>
<mask id="path-2-inside-1_328_14" fill="white">
<path d="M30 15C30 23.2843 23.2843 30 15 30C6.71573 30 0 23.2843 0 15C0 6.71573 6.71573 0 15 0C23.2843 0 30 6.71573 30 15ZM1.65046 15C1.65046 22.3727 7.62725 28.3495 15 28.3495C22.3727 28.3495 28.3495 22.3727 28.3495 15C28.3495 7.62725 22.3727 1.65046 15 1.65046C7.62725 1.65046 1.65046 7.62725 1.65046 15Z"/>
</mask>
<path d="M30 15C30 23.2843 23.2843 30 15 30C6.71573 30 0 23.2843 0 15C0 6.71573 6.71573 0 15 0C23.2843 0 30 6.71573 30 15ZM1.65046 15C1.65046 22.3727 7.62725 28.3495 15 28.3495C22.3727 28.3495 28.3495 22.3727 28.3495 15C28.3495 7.62725 22.3727 1.65046 15 1.65046C7.62725 1.65046 1.65046 7.62725 1.65046 15Z" stroke="#DA4167" stroke-width="52" mask="url(#path-2-inside-1_328_14)"/>
</svg>
