<svg width="60" height="15" viewBox="0 0 60 15" fill="none" xmlns="http://www.w3.org/2000/svg">
<path fill-rule="evenodd" clip-rule="evenodd" d="M58.9136 0H46.1307C45.5193 0 45 0.483571 45 1.07929V13.92C45 14.5164 45.3407 15 45.9521 15H58.735C59.3471 15 60 14.5164 60 13.92V1.07929C60 0.483571 59.5257 0 58.9136 0ZM50.7143 5.71429H52.7336V6.74357H52.7557C53.0636 6.18857 53.9729 5.625 55.0971 5.625C57.255 5.625 57.8571 6.77071 57.8571 8.89286V12.8571H55.7143V9.28357C55.7143 8.33357 55.335 7.5 54.4479 7.5C53.3707 7.5 52.8571 8.22929 52.8571 9.42643V12.8571H50.7143V5.71429ZM47.1429 12.8571H49.2857V5.71429H47.1429V12.8571ZM49.5536 3.21429C49.5536 3.95429 48.9543 4.55357 48.2143 4.55357C47.4743 4.55357 46.875 3.95429 46.875 3.21429C46.875 2.47429 47.4743 1.875 48.2143 1.875C48.9543 1.875 49.5536 2.47429 49.5536 3.21429Z" fill="#353535"/>
<path d="M42.8572 12.8569H40.8572V12.0062H40.8358C40.3908 12.5219 39.6179 12.9461 38.3079 12.9461C36.5222 12.9461 34.9844 11.6026 34.9844 9.29329C34.9844 7.09329 36.5001 5.62472 38.3751 5.62472C39.5358 5.62472 40.2565 6.03758 40.6929 6.56472H40.7144V2.14258H42.8572V12.8569ZM38.9137 7.23186C37.6887 7.23186 37.0001 8.10544 37.0001 9.26686C37.0001 10.429 37.6887 11.339 38.9137 11.339C40.1401 11.339 40.8572 10.4526 40.8572 9.26686C40.8572 8.04829 40.1401 7.23186 38.9137 7.23186Z" fill="#353535"/>
<path d="M34.0433 11.7064C33.5376 12.3614 32.4962 12.9464 30.8147 12.9464C28.5712 12.9464 27.1426 11.4614 27.1426 9.12714C27.1426 7.05357 28.4369 5.625 30.8776 5.625C32.9854 5.625 34.2854 7.00929 34.2854 9.44429C34.2854 9.68786 34.2461 9.92857 34.2461 9.92857H29.1647L29.1769 10.1493C29.3176 10.765 29.7826 11.5179 30.8497 11.5179C31.7812 11.5179 32.4197 11.0171 32.7083 10.625L34.0433 11.7064ZM32.2233 8.57143C32.2376 7.81786 31.6847 7.05357 30.8133 7.05357C29.7761 7.05357 29.2226 7.86357 29.1647 8.57143H32.2233Z" fill="#353535"/>
<path d="M27.1429 5.71401H24.6429L22.1429 8.57115V2.14258H20V12.8569H22.1429V9.28544L24.785 12.8569H27.315L24.2857 8.95186L27.1429 5.71401Z" fill="#353535"/>
<path d="M11.4287 5.71429H13.448V6.74357H13.4701C13.778 6.18857 14.6873 5.625 15.8116 5.625C17.9694 5.625 18.5716 6.99429 18.5716 8.89286V12.8571H16.4287V9.28357C16.4287 8.23214 16.0494 7.5 15.1623 7.5C14.0851 7.5 13.5716 8.35286 13.5716 9.42643V12.8571H11.4287V5.71429Z" fill="#353535"/>
<path d="M7.85686 12.8573H9.99972V5.71443H7.85686V12.8573ZM8.92901 4.50014C9.63901 4.50014 10.214 3.92443 10.214 3.21443C10.214 2.50443 9.63901 1.92871 8.92901 1.92871C8.21972 1.92871 7.64258 2.50443 7.64258 3.21443C7.64258 3.92443 8.21972 4.50014 8.92901 4.50014Z" fill="#353535"/>
<path d="M2.14286 2.14258H0V12.8569H6.42857V10.714H2.14286V2.14258Z" fill="#353535"/>
</svg>
