<svg width="61" height="20" viewBox="0 0 61 20" fill="none" xmlns="http://www.w3.org/2000/svg">
<path d="M0.157291 14.9975C-0.0103289 14.327 -0.00891272 13.9087 0.00658156 10.6535C0.00658156 9.5083 0.0192539 8.02225 0.0192539 6.06152H2.46453C2.46453 7.15457 2.45608 8.11099 2.45186 8.9505C2.42228 13.7199 2.41523 14.8538 3.37869 15.9356C3.68595 16.2816 4.06306 16.5586 4.48516 16.7483C4.90725 16.9379 5.36474 17.036 5.8275 17.036C6.29025 17.036 6.74774 16.9379 7.16983 16.7483C7.59193 16.5586 7.96904 16.2816 8.2763 15.9356C9.23976 14.8538 9.23273 13.7213 9.20456 8.95332C9.20456 8.10818 9.19328 7.15598 9.19046 6.06152H11.6752C11.6752 7.15457 11.6752 8.11099 11.6625 8.94909C11.6329 13.7199 11.6259 14.8524 12.5894 15.9356C12.8969 16.2815 13.2741 16.5583 13.6963 16.7478C14.1185 16.9374 14.5761 17.0354 15.0388 17.0354C15.5016 17.0354 15.9592 16.9374 16.3814 16.7478C16.8036 16.5583 17.1808 16.2815 17.4883 15.9356C18.4504 14.8538 18.4448 13.7199 18.4152 8.9505C18.4152 8.10536 18.4039 7.15457 18.4025 6.06152H20.8464C20.8464 8.02225 20.8548 9.5083 20.8605 10.6535C20.8746 13.9087 20.8774 14.327 20.7055 15.0116C20.0012 18.1104 17.3517 19.519 15.0417 19.5275C13.4789 19.5257 11.98 18.9071 10.8709 17.8062L10.4328 17.3625L9.99475 17.8062C8.88759 18.9058 7.39141 19.5243 5.831 19.5275C3.5139 19.5134 0.860168 18.1189 0.157291 14.9975Z" fill="#353535"/>
<path d="M26.2709 0.361328C26.5495 0.361328 26.8218 0.443939 27.0534 0.598715C27.2851 0.753491 27.4656 0.973479 27.5722 1.23086C27.6788 1.48824 27.7067 1.77146 27.6524 2.0447C27.598 2.31793 27.4639 2.56892 27.2669 2.76591C27.0699 2.9629 26.8189 3.09705 26.5457 3.1514C26.2724 3.20575 25.9892 3.17786 25.7318 3.07125C25.4744 2.96464 25.2545 2.7841 25.0997 2.55246C24.9449 2.32082 24.8623 2.04849 24.8623 1.7699C24.8623 1.39632 25.0107 1.03805 25.2749 0.773889C25.539 0.509731 25.8973 0.361328 26.2709 0.361328ZM25.0482 6.06182H27.4935V19.5278H25.0482V6.06182Z" fill="#353535"/>
<path d="M38.0141 6.06154C38.4237 6.06126 38.8324 6.09803 39.2353 6.17141V8.68149C38.3718 8.42522 37.4494 8.44743 36.5992 8.74498C35.749 9.04252 35.0141 9.60028 34.4987 10.3391C33.9834 11.0779 33.7139 11.9603 33.7284 12.8609C33.7428 13.7616 34.0406 14.6348 34.5794 15.3567C35.1182 16.0786 35.8707 16.6124 36.7301 16.8825C37.5894 17.1525 38.512 17.1451 39.3668 16.8612C40.2217 16.5773 40.9655 16.0314 41.4926 15.3009C42.0196 14.5704 42.3033 13.6925 42.3032 12.7917V0.549805H44.7471V12.7945C44.7473 14.1266 44.3526 15.4288 43.6127 16.5365C42.8728 17.6441 41.8211 18.5075 40.5905 19.0174C39.3599 19.5273 38.0057 19.6608 36.6992 19.401C35.3928 19.1412 34.1927 18.4997 33.2508 17.5578C32.3089 16.6159 31.6675 15.4159 31.4077 14.1094C31.1479 12.8029 31.2813 11.4487 31.7912 10.2181C32.3011 8.98753 33.1645 7.93578 34.2722 7.1959C35.3798 6.45603 36.6821 6.06126 38.0141 6.06154Z" fill="#353535"/>
<path d="M60.0794 15.0067C59.3751 18.1056 56.7256 19.5141 54.4155 19.5226C52.0984 19.5085 49.4461 18.107 48.7418 14.9926C48.515 14.0827 48.6009 13.6291 48.6009 6.05664H51.0448C51.0321 13.2812 50.8265 14.6574 51.959 15.9307C52.2662 16.2767 52.6433 16.5537 53.0654 16.7434C53.4875 16.9331 53.945 17.0311 54.4078 17.0311C54.8705 17.0311 55.328 16.9331 55.7501 16.7434C56.1722 16.5537 56.5493 16.2767 56.8565 15.9307C57.9834 14.663 57.7834 13.3305 57.7721 6.05664H60.216C60.2245 13.6009 60.3132 14.0714 60.0794 15.0067Z" fill="#353535"/>
<path d="M54.951 3.89188H53.2607L55.444 0.335239C55.507 0.232958 55.595 0.148466 55.6997 0.0897906C55.8045 0.0311153 55.9226 0.000206452 56.0427 0H58.788L55.475 3.66228C55.4083 3.73474 55.3273 3.79256 55.2371 3.83208C55.1469 3.8716 55.0495 3.89197 54.951 3.89188Z" fill="#353535"/>
</svg>
