<svg width="172" height="56" viewBox="0 0 172 56" fill="none" xmlns="http://www.w3.org/2000/svg">
<path d="M0.447232 42.6424C-0.0293684 40.736 -0.0253419 39.5465 0.0187136 30.2908C0.0187136 27.0347 0.0547453 22.8094 0.0547453 17.2344H7.0075C7.0075 20.3423 6.98348 23.0617 6.97146 25.4487C6.88736 39.0098 6.86732 42.2339 9.60677 45.3097C10.4804 46.2936 11.5527 47.0811 12.7528 47.6204C13.953 48.1597 15.2538 48.4386 16.5695 48.4386C17.8853 48.4386 19.1861 48.1597 20.3863 47.6204C21.5864 47.0811 22.6587 46.2936 23.5323 45.3097C26.2718 42.2339 26.2518 39.0138 26.1717 25.4567C26.1717 23.0537 26.1396 20.3463 26.1316 17.2344H33.1965C33.1965 20.3423 33.1965 23.0617 33.1605 25.4447C33.0763 39.0098 33.0564 42.2299 35.7958 45.3097C36.6702 46.2931 37.7428 47.0802 38.9432 47.6191C40.1437 48.1581 41.4447 48.4368 42.7605 48.4368C44.0764 48.4368 45.3774 48.1581 46.5778 47.6191C47.7783 47.0802 48.8509 46.2931 49.7253 45.3097C52.4607 42.2339 52.4447 39.0098 52.3606 25.4487C52.3606 23.0457 52.3285 20.3423 52.3245 17.2344H59.2733C59.2733 22.8094 59.2974 27.0347 59.3134 30.2908C59.3535 39.5465 59.3614 40.736 58.8728 42.6824C56.8703 51.4935 49.3368 55.4986 42.7686 55.5226C38.3251 55.5175 34.0633 53.7587 30.9096 50.6284L29.6641 49.3668L28.4184 50.6284C25.2704 53.7549 21.0163 55.5136 16.5795 55.5226C9.99122 55.4825 2.44575 51.5175 0.447232 42.6424Z" fill="#353535"/>
<path d="M74.6974 1.02441C75.4895 1.02441 76.2639 1.25931 76.9225 1.69939C77.5811 2.13947 78.0945 2.76497 78.3976 3.49679C78.7007 4.22862 78.7801 5.0339 78.6255 5.8108C78.471 6.58771 78.0895 7.30134 77.5294 7.86145C76.9693 8.42157 76.2557 8.80301 75.4788 8.95755C74.7019 9.11208 73.8966 9.03277 73.1647 8.72964C72.4329 8.4265 71.8074 7.91317 71.3674 7.25454C70.9273 6.59592 70.6924 5.82158 70.6924 5.02946C70.6924 3.96725 71.1144 2.94856 71.8654 2.19746C72.6165 1.44637 73.6352 1.02441 74.6974 1.02441ZM71.2211 17.2328H78.1738V55.5211H71.2211V17.2328Z" fill="#353535"/>
<path d="M108.087 17.2342C109.251 17.2334 110.413 17.338 111.559 17.5466V24.6836C109.104 23.955 106.481 24.0181 104.064 24.8641C101.646 25.7102 99.5566 27.2961 98.0913 29.3968C96.6261 31.4975 95.8597 34.0063 95.9009 36.5672C95.942 39.1281 96.7887 41.611 98.3207 43.6635C99.8527 45.716 101.992 47.2339 104.436 48.0018C106.879 48.7696 109.502 48.7485 111.933 47.9412C114.364 47.134 116.478 45.5818 117.977 43.5048C119.476 41.4278 120.282 38.9316 120.282 36.3703V1.5625H127.231V36.3783C127.232 40.1658 126.109 43.8685 124.005 47.018C121.902 50.1675 118.911 52.6224 115.412 54.0721C111.913 55.5219 108.063 55.9015 104.348 55.1627C100.633 54.424 97.2211 52.6003 94.5429 49.9221C91.8648 47.244 90.041 43.8317 89.3023 40.117C88.5636 36.4022 88.9431 32.5519 90.3929 29.0528C91.8426 25.5538 94.2976 22.5633 97.4471 20.4596C100.597 18.3559 104.299 17.2334 108.087 17.2342Z" fill="#FF7330"/>
<path d="M170.826 42.6688C168.824 51.4798 161.29 55.4849 154.722 55.5089C148.133 55.4689 140.592 51.4839 138.589 42.6287C137.945 40.0414 138.189 38.7518 138.189 17.2207H145.138C145.102 37.7626 144.517 41.6755 147.737 45.2961C148.611 46.2799 149.683 47.0674 150.883 47.6067C152.083 48.1461 153.384 48.4249 154.7 48.4249C156.016 48.4249 157.316 48.1461 158.517 47.6067C159.717 47.0674 160.789 46.2799 161.662 45.2961C164.867 41.6915 164.298 37.9028 164.266 17.2207H171.215C171.239 38.6717 171.491 40.0094 170.826 42.6688Z" fill="#FF7330"/>
</svg>
