<svg width="102" height="87" viewBox="0 0 102 87" fill="none" xmlns="http://www.w3.org/2000/svg">
<g clip-path="url(#clip0_479_1443)">
<path d="M81.9437 22.6153L80.2113 15.7789L77.7726 6.17057L77.6393 5.62419L76.6798 1.82618C76.32 0.533523 75.0007 -0.252732 73.708 0.0804267L67.2847 1.70624L27.1724 11.9142C25.8797 12.2474 25.0935 13.5667 25.4266 14.8594L26.8126 20.3098L30.3307 34.1426L31.65 39.3399L31.7167 39.6064H32.0098L31.9432 39.3399L30.6772 34.3691L27.0125 19.9367L25.7065 14.7927C25.4133 13.6467 26.1063 12.4873 27.2523 12.1941L67.2714 1.99942L73.7747 0.346954C74.9207 0.053774 76.0801 0.746745 76.3733 1.89281L77.3994 5.9307L77.5327 6.47708L79.9048 15.8189L81.6372 22.6153L81.7038 22.8951H81.997L81.9437 22.6153Z" fill="#CCCCCC"/>
<path d="M38.7665 32.1034C42.5643 32.1034 45.6429 29.0247 45.6429 25.227C45.6429 21.4293 42.5643 18.3506 38.7665 18.3506C34.9688 18.3506 31.8901 21.4293 31.8901 25.227C31.8901 29.0247 34.9688 32.1034 38.7665 32.1034Z" fill="#F2F2F2"/>
<path d="M54.3451 22.6144L54.6783 22.8943H49.441C48.255 22.8943 47.3088 23.8538 47.3088 25.0265V41.338L47.2289 45.2026L43.884 42.2175L43.5641 42.2975L41.0854 40.112C40.7256 39.7921 40.2459 39.6056 39.7661 39.6056H33.2495L33.3561 39.339L34.6621 35.8609L42.0582 16.1112L42.8178 14.0856C42.9778 13.6591 43.4575 13.4459 43.884 13.6058C43.9772 13.6458 44.0572 13.6858 44.1372 13.7524L49.1079 18.0702L52.0397 20.6155L54.3451 22.6144Z" fill="#E6E6E6"/>
<path d="M76.107 22.6147L76.4402 22.8946H60.4219L60.5285 22.6147L63.94 13.6061C64.1 13.1796 64.5797 12.9664 65.0061 13.1263C65.0994 13.1663 65.1794 13.2063 65.2593 13.2729L72.0425 19.1099L72.4289 19.443L76.107 22.6147Z" fill="#E6E6E6"/>
<path d="M82.3037 25.4131C81.0377 25.4131 79.8384 25.9994 79.0788 27.0122C77.7328 26.4259 76.1736 27.0522 75.5873 28.3982C75.4407 28.7314 75.374 29.0912 75.374 29.451H86.355C86.355 27.2121 84.5426 25.4131 82.3037 25.4131Z" fill="#E6E6E6"/>
<path d="M97.4691 22.6152H49.4409C48.3348 22.6152 47.362 23.3748 47.0954 24.4543C47.0421 24.6408 47.0288 24.8407 47.0288 25.0406V45.3367L47.1887 45.4699L47.322 45.5899V25.0273C47.322 23.8413 48.2815 22.8951 49.4542 22.8951H97.4691C98.6551 22.8951 99.6013 23.8546 99.6013 25.0273V49.7211H99.7346C99.7879 49.7211 99.8279 49.7211 99.8812 49.7211V25.0273C99.8812 23.6947 98.8017 22.6152 97.4691 22.6152Z" fill="black"/>
<path d="M58.2762 41.2184C61.8679 41.2184 64.7795 38.3068 64.7795 34.7152C64.7795 31.1235 61.8679 28.2119 58.2762 28.2119C54.6846 28.2119 51.7729 31.1235 51.7729 34.7152C51.7729 38.3068 54.6846 41.2184 58.2762 41.2184Z" fill="#353535"/>
<path d="M97.5226 49.7342H52.8792C52.3329 49.7342 51.7998 49.5343 51.3867 49.1745L50.3872 48.2949L50.5338 48.0684L50.8136 47.6686L62.8474 30.3443L64.0867 28.5586C64.3532 28.1854 64.8596 28.0921 65.2328 28.3453C65.3127 28.3986 65.3794 28.4653 65.446 28.5586L69.204 33.9691L71.4162 37.1541L76.6935 44.7501L84.6893 33.3294C84.9558 32.9563 85.4622 32.863 85.8353 33.1295C85.9153 33.1828 85.9819 33.2494 86.0352 33.3294L91.1659 40.6589L91.4591 41.0854L97.3493 49.481L97.5226 49.7342Z" fill="#FF7330"/>
<path d="M73.6682 32.1562C72.109 32.1562 70.6298 32.8892 69.6969 34.1286C68.0311 33.4089 66.1121 34.1819 65.3925 35.8477C65.2193 36.2608 65.126 36.7005 65.126 37.1403H78.6656C78.6522 34.3951 76.4267 32.1562 73.6682 32.1562Z" fill="#CCCCCC"/>
<path d="M50.3604 47.9216L48.7079 46.4557C48.6546 46.4158 48.6013 46.3758 48.548 46.3358C48.5346 46.3225 48.5213 46.3225 48.508 46.3091C48.4947 46.3091 48.4947 46.2958 48.4947 46.2958C48.4947 46.2958 48.4947 46.2958 48.4813 46.2958C48.4414 46.2692 48.4014 46.2292 48.3747 46.2025C48.3614 46.1892 48.3348 46.1759 48.3214 46.1626C48.2681 46.1226 48.2148 46.0826 48.1748 46.0293C48.1215 45.9893 48.0682 45.936 48.0149 45.896C48.0016 45.8827 47.9883 45.8827 47.9883 45.8694C47.935 45.8294 47.8817 45.7761 47.8417 45.7361C47.8017 45.6961 47.7617 45.6562 47.7084 45.6162C47.6684 45.5762 47.6285 45.5495 47.5885 45.5096L47.5752 45.4962C47.5485 45.4696 47.5218 45.4429 47.4952 45.4163C47.4685 45.3896 47.4419 45.363 47.4152 45.3363C47.3886 45.3097 47.3619 45.283 47.3353 45.2564L47.3086 45.2297H47.2953L47.0421 45.0032V45.363L47.202 45.4962L47.3353 45.6162L50.0805 48.0282L50.3337 48.2548L50.4003 48.3081L50.467 48.2148L50.5603 48.0815L50.3604 47.9216ZM90.1662 49.4675C90.1662 49.5608 90.1795 49.6407 90.1795 49.734H99.6013V49.4675H90.1662ZM50.3604 47.9216L48.7079 46.4557C48.6546 46.4158 48.6013 46.3758 48.548 46.3358C48.5346 46.3225 48.5213 46.3225 48.508 46.3091C48.4947 46.3091 48.4947 46.2958 48.4947 46.2958C48.4947 46.2958 48.4947 46.2958 48.4813 46.2958C48.4414 46.2692 48.4014 46.2292 48.3747 46.2025C48.3614 46.1892 48.3348 46.1759 48.3214 46.1626C48.2681 46.1226 48.2148 46.0826 48.1748 46.0293C48.1215 45.9893 48.0682 45.936 48.0149 45.896C48.0016 45.8827 47.9883 45.8827 47.9883 45.8694C47.935 45.8294 47.8817 45.7761 47.8417 45.7361C47.8017 45.6961 47.7617 45.6562 47.7084 45.6162C47.6684 45.5762 47.6285 45.5495 47.5885 45.5096L47.5752 45.4962C47.5485 45.4696 47.5218 45.4429 47.4952 45.4163C47.4685 45.3896 47.4419 45.363 47.4152 45.3363C47.3886 45.3097 47.3619 45.283 47.3353 45.2564L47.3086 45.2297H47.2953L47.0421 45.0032V45.363L47.202 45.4962L47.3353 45.6162L50.0805 48.0282L50.3337 48.2548L50.4003 48.3081L50.467 48.2148L50.5603 48.0815L50.3604 47.9216ZM97.3358 49.4675H90.1662C90.1662 49.5608 90.1795 49.6407 90.1795 49.734H97.5224L97.3358 49.4675ZM50.3604 47.9216L48.7079 46.4557C48.6546 46.4158 48.6013 46.3758 48.548 46.3358C48.5346 46.3225 48.5213 46.3225 48.508 46.3091C48.4947 46.3091 48.4947 46.2958 48.4947 46.2958C48.4947 46.2958 48.4947 46.2958 48.4813 46.2958C48.4414 46.2692 48.4014 46.2292 48.3747 46.2025C48.3614 46.1892 48.3348 46.1759 48.3214 46.1626C48.2681 46.1226 48.2148 46.0826 48.1748 46.0293C48.1215 45.9893 48.0682 45.936 48.0149 45.896C48.0016 45.8827 47.9883 45.8827 47.9883 45.8694C47.935 45.8294 47.8817 45.7761 47.8417 45.7361C47.8017 45.6961 47.7617 45.6562 47.7084 45.6162C47.6684 45.5762 47.6285 45.5495 47.5885 45.5096L47.5752 45.4962C47.5485 45.4696 47.5218 45.4429 47.4952 45.4163C47.4685 45.3896 47.4419 45.363 47.4152 45.3363C47.3886 45.3097 47.3619 45.283 47.3353 45.2564L47.3086 45.2297H47.2953L47.0421 45.0032V45.363L47.202 45.4962L47.3353 45.6162L50.0805 48.0282L50.3337 48.2548L50.4003 48.3081L50.467 48.2148L50.5603 48.0815L50.3604 47.9216ZM43.8837 42.2046L41.2718 39.8992C40.8587 39.5394 40.3256 39.3261 39.7792 39.3395H31.9433L32.01 39.606H39.7792C40.2723 39.606 40.7387 39.7792 41.0985 40.1124L43.5772 42.2979L47.0288 45.3363V44.9765L43.8837 42.2046ZM99.8944 49.4675C99.8411 49.4675 99.8012 49.4675 99.7479 49.4675H52.8657C52.4126 49.4675 51.9729 49.3209 51.6264 49.041C51.5997 49.0144 51.5731 49.0011 51.5464 48.9744L50.6136 48.1482L50.5203 48.0682L50.3604 47.9216L48.7079 46.4557L47.6018 45.4829L47.322 45.243L47.2953 45.2297H47.282L47.0288 45.0032L43.8971 42.2446L41.2851 39.9391C40.872 39.5793 40.3389 39.3661 39.7926 39.3794H28.3319C27.0792 39.3794 26.0664 40.3922 26.0664 41.6449V84.0228C26.0664 85.2754 27.0792 86.2882 28.3319 86.2882H99.7612C101.014 86.2882 102.027 85.2754 102.027 84.0228V51.773C102 50.5336 101.08 49.5475 99.8944 49.4675ZM101.733 83.9828C101.733 85.0889 100.841 85.9817 99.7345 85.9817H28.3052C27.1991 85.9817 26.3063 85.0889 26.3063 83.9828V41.6049C26.3063 40.4989 27.1991 39.606 28.3052 39.606H39.7659C40.259 39.606 40.7254 39.7792 41.0852 40.1124L43.5639 42.2979L47.0154 45.3363L47.1754 45.4696L47.3086 45.5895L50.0539 48.0016L50.3071 48.2281L50.3737 48.2814L51.3732 49.161C51.7863 49.5208 52.3193 49.7207 52.8657 49.7207H99.7345C99.7878 49.7207 99.8278 49.7207 99.8811 49.7207C100.921 49.8007 101.733 50.6669 101.733 51.7063V83.9828ZM50.3604 47.9216L48.7079 46.4557C48.6546 46.4158 48.6013 46.3758 48.548 46.3358C48.5346 46.3225 48.5213 46.3225 48.508 46.3091C48.4947 46.3091 48.4947 46.2958 48.4947 46.2958C48.4947 46.2958 48.4947 46.2958 48.4813 46.2958C48.4414 46.2692 48.4014 46.2292 48.3747 46.2025C48.3614 46.1892 48.3348 46.1759 48.3214 46.1626C48.2681 46.1226 48.2148 46.0826 48.1748 46.0293C48.1215 45.9893 48.0682 45.936 48.0149 45.896C48.0016 45.8827 47.9883 45.8827 47.9883 45.8694C47.935 45.8294 47.8817 45.7761 47.8417 45.7361C47.8017 45.6961 47.7617 45.6562 47.7084 45.6162C47.6684 45.5762 47.6285 45.5495 47.5885 45.5096L47.5752 45.4962C47.5485 45.4696 47.5218 45.4429 47.4952 45.4163C47.4685 45.3896 47.4419 45.363 47.4152 45.3363C47.3886 45.3097 47.3619 45.283 47.3353 45.2564L47.3086 45.2297H47.2953L47.0421 45.0032V45.363L47.202 45.4962L47.3353 45.6162L50.0805 48.0282L50.3337 48.2548L50.4003 48.3081L50.467 48.2148L50.5603 48.0815L50.3604 47.9216ZM90.1662 49.4675C90.1662 49.5608 90.1795 49.6407 90.1795 49.734H99.6013V49.4675H90.1662ZM50.3604 47.9216L48.7079 46.4557C48.6546 46.4158 48.6013 46.3758 48.548 46.3358C48.5346 46.3225 48.5213 46.3225 48.508 46.3091C48.4947 46.3091 48.4947 46.2958 48.4947 46.2958C48.4947 46.2958 48.4947 46.2958 48.4813 46.2958C48.4414 46.2692 48.4014 46.2292 48.3747 46.2025C48.3614 46.1892 48.3348 46.1759 48.3214 46.1626C48.2681 46.1226 48.2148 46.0826 48.1748 46.0293C48.1215 45.9893 48.0682 45.936 48.0149 45.896C48.0016 45.8827 47.9883 45.8827 47.9883 45.8694C47.935 45.8294 47.8817 45.7761 47.8417 45.7361C47.8017 45.6961 47.7617 45.6562 47.7084 45.6162C47.6684 45.5762 47.6285 45.5495 47.5885 45.5096L47.5752 45.4962C47.5485 45.4696 47.5218 45.4429 47.4952 45.4163C47.4685 45.3896 47.4419 45.363 47.4152 45.3363C47.3886 45.3097 47.3619 45.283 47.3353 45.2564L47.3086 45.2297H47.2953L47.0421 45.0032V45.363L47.202 45.4962L47.3353 45.6162L50.0805 48.0282L50.3337 48.2548L50.4003 48.3081L50.467 48.2148L50.5603 48.0815L50.3604 47.9216ZM50.3604 47.9216L48.7079 46.4557C48.6546 46.4158 48.6013 46.3758 48.548 46.3358C48.5346 46.3225 48.5213 46.3225 48.508 46.3091C48.4947 46.3091 48.4947 46.2958 48.4947 46.2958C48.4947 46.2958 48.4947 46.2958 48.4813 46.2958C48.4414 46.2692 48.4014 46.2292 48.3747 46.2025C48.3614 46.1892 48.3348 46.1759 48.3214 46.1626C48.2681 46.1226 48.2148 46.0826 48.1748 46.0293C48.1215 45.9893 48.0682 45.936 48.0149 45.896C48.0016 45.8827 47.9883 45.8827 47.9883 45.8694C47.935 45.8294 47.8817 45.7761 47.8417 45.7361C47.8017 45.6961 47.7617 45.6562 47.7084 45.6162C47.6684 45.5762 47.6285 45.5495 47.5885 45.5096L47.5752 45.4962C47.5485 45.4696 47.5218 45.4429 47.4952 45.4163C47.4685 45.3896 47.4419 45.363 47.4152 45.3363C47.3886 45.3097 47.3619 45.283 47.3353 45.2564L47.3086 45.2297H47.2953L47.0421 45.0032V45.363L47.202 45.4962L47.3353 45.6162L50.0805 48.0282L50.3337 48.2548L50.4003 48.3081L50.467 48.2148L50.5603 48.0815L50.3604 47.9216ZM97.3358 49.4675H90.1662C90.1662 49.5608 90.1795 49.6407 90.1795 49.734H97.5224L97.3358 49.4675Z" fill="black"/>
<path d="M7.0498 41.6845V38.5395C7.0498 35.9275 9.1687 33.8086 11.7807 33.8086C14.3926 33.8086 16.5115 35.9275 16.5115 38.5395V41.6845C16.5115 41.8177 16.3916 41.9377 16.2583 41.9377H15.9785C15.8719 41.9377 15.7919 41.8844 15.7519 41.7911L15.6853 41.6445C15.6586 41.5779 15.592 41.5512 15.5254 41.5779C15.4854 41.5912 15.4587 41.6445 15.4587 41.6845C15.4587 41.8177 15.3388 41.9377 15.2055 41.9377H7.30301C7.16974 41.9377 7.0498 41.8177 7.0498 41.6845Z" fill="black"/>
<path d="M16.9912 84.4225H18.617L19.4033 78.1191H16.9912V84.4225Z" fill="#FFB8B8"/>
<path d="M21.7752 85.9417H16.6445V83.9561H19.7896C20.8823 83.9561 21.7752 84.8356 21.7752 85.9417Z" fill="#2F2E41"/>
<path d="M4.86426 84.4225H6.49007L7.27633 78.1191H4.86426V84.4225Z" fill="#FFB8B8"/>
<path d="M9.64823 85.9417H4.51758V83.9561H7.6626C8.75536 83.9561 9.64823 84.8356 9.64823 85.9417Z" fill="#2F2E41"/>
<path d="M14.3258 78.7718L11.1674 65.9252C11.1008 65.672 10.8476 65.5254 10.6077 65.5787C10.4078 65.632 10.2612 65.8053 10.2479 66.0052L9.5416 78.5586C9.52827 78.8918 9.2351 79.145 8.91526 79.1183H8.90194L3.29154 78.6652C2.97171 78.6386 2.73183 78.372 2.74516 78.0522C2.82512 75.2936 4.23771 56.0104 8.26227 51.7992C8.40886 51.6527 8.62208 51.586 8.82198 51.6393L14.2058 53.1052C14.4324 53.1585 14.6056 53.3318 14.6589 53.5583L20.5892 77.4792C20.6558 77.799 20.4559 78.1188 20.1361 78.1988H20.1227L15.0321 79.1983C14.7122 79.2782 14.4057 79.0783 14.3258 78.7718Z" fill="#FF7330"/>
<path d="M12.4336 41.871C14.2441 41.871 15.7118 40.4033 15.7118 38.5927C15.7118 36.7822 14.2441 35.3145 12.4336 35.3145C10.623 35.3145 9.15527 36.7822 9.15527 38.5927C9.15527 40.4033 10.623 41.871 12.4336 41.871Z" fill="#FFB8B8"/>
<path d="M14.126 53.4785L8.47562 52.2125C8.22242 52.1592 8.03585 51.946 8.0092 51.6928L7.62273 47.8015C7.39619 45.656 8.82211 43.6703 10.941 43.2039C10.981 43.1906 11.0343 43.1906 11.0743 43.1773C12.5002 42.8841 13.9794 43.3372 14.9789 44.4033C16.005 45.4694 16.4048 47.0019 16.0317 48.4412L14.8323 53.0654C14.7657 53.332 14.5258 53.5185 14.2593 53.5185C14.2193 53.4919 14.1793 53.4919 14.126 53.4785Z" fill="#353535"/>
<path d="M0.119722 59.3821C-0.173458 58.7824 0.0797427 58.0627 0.679429 57.7696C0.746061 57.7429 0.812693 57.7163 0.879325 57.6896L4.97052 49.334L7.07609 50.9065L2.41186 58.6091C2.55845 59.2621 2.132 59.9151 1.47901 60.0617C0.919304 60.1683 0.359596 59.8885 0.119722 59.3821Z" fill="#FFB8B8"/>
<path d="M27.9453 54.8914C27.9453 54.225 27.3989 53.6787 26.7326 53.6787C26.666 53.6787 26.586 53.6787 26.5194 53.692L19.1632 47.9883L17.9639 50.3337L25.5466 55.1845C25.7065 55.8375 26.3728 56.2373 27.0258 56.0774C27.5722 55.9441 27.9453 55.4511 27.9453 54.8914Z" fill="#FFB8B8"/>
<path d="M6.88994 51.5733C6.80998 51.5733 6.73002 51.5466 6.65006 51.5067L4.43789 50.294C4.21134 50.1607 4.11805 49.8808 4.22466 49.641L6.45017 45.0034C6.65006 44.5636 7.00988 44.2172 7.44965 44.0306C8.08931 43.7641 8.83559 43.8573 9.38197 44.2971C9.59519 44.457 9.75511 44.6703 9.87504 44.8968C10.1682 45.4698 10.1682 46.1495 9.84839 46.7092L7.32971 51.3201C7.23642 51.48 7.07651 51.5733 6.88994 51.5733Z" fill="#353535"/>
<path d="M18.0439 50.7598L13.7261 47.748C13.1931 47.3749 12.8866 46.7752 12.9132 46.1355C12.9132 45.869 12.9799 45.6158 13.0998 45.3759C13.393 44.7496 14.0193 44.3231 14.7256 44.2831C15.2054 44.2565 15.6718 44.4164 16.0449 44.7229L20.0828 47.9079C20.296 48.0678 20.336 48.361 20.1761 48.5876L18.7235 50.6532C18.5769 50.8531 18.2704 50.9064 18.0439 50.7598Z" fill="#353535"/>
<path d="M8.64893 37.4734C8.64893 35.5944 10.1681 34.0752 12.0471 34.0752C13.9262 34.0752 15.4454 35.5944 15.4454 37.4734V37.6733H14.5658C14.4992 37.6733 14.4192 37.6334 14.3793 37.58L14.2193 37.3535C14.1927 37.3135 14.1261 37.3002 14.0861 37.3268C14.0594 37.3402 14.0461 37.3802 14.0461 37.4068C14.0594 37.5267 13.9795 37.6467 13.8462 37.66C13.8329 37.66 13.8329 37.66 13.8195 37.66H8.64893V37.4734Z" fill="black"/>
<path d="M96.0829 84.5828H31.3035C30.1307 84.5828 29.1846 83.6366 29.1846 82.4639V44.0173C29.1846 42.8446 30.1307 41.8984 31.3035 41.8984C32.3429 41.8984 33.1825 42.738 33.1825 43.7775V79.9319C33.1825 81.0246 34.0753 81.9175 35.1681 81.9175H95.8697C96.496 81.9042 97.0291 82.3306 97.189 82.9303C97.3623 83.5034 97.1224 84.1164 96.616 84.4229C96.4561 84.5162 96.2695 84.5695 96.0829 84.5828Z" fill="#F2F2F2"/>
</g>
<defs>
<clipPath id="clip0_479_1443">
<rect width="102" height="86.2482" fill="white"/>
</clipPath>
</defs>
</svg>
