<svg width="102" height="68" viewBox="0 0 102 68" fill="none" xmlns="http://www.w3.org/2000/svg">
<path d="M96.4417 67.7312C96.6793 65.1954 97.3444 62.7296 98.3896 60.4042C98.6865 59.7614 99.0072 59.1304 99.3635 58.5111C99.3991 58.4409 99.3754 58.3591 99.3041 58.3241C99.2328 58.289 99.1497 58.3124 99.1141 58.3708C97.8313 60.6145 96.9287 63.0568 96.4536 65.5927C96.323 66.3055 96.2161 67.0183 96.1567 67.7312C96.1329 67.9181 96.418 67.9181 96.4417 67.7312Z" fill="#F2F2F2"/>
<path d="M100.052 58.9665C101.056 58.9665 101.869 58.166 101.869 57.1785C101.869 56.1911 101.056 55.3906 100.052 55.3906C99.0485 55.3906 98.2349 56.1911 98.2349 57.1785C98.2349 58.166 99.0485 58.9665 100.052 58.9665Z" fill="#F2F2F2"/>
<path d="M96.6195 67.7777C96.7739 66.1417 97.2015 64.529 97.8903 63.0215C98.0804 62.6009 98.2942 62.1918 98.5198 61.7945C98.5436 61.7478 98.5317 61.6894 98.4842 61.666C98.4367 61.6426 98.3892 61.6543 98.3654 61.701C97.534 63.1618 96.9521 64.7394 96.6433 66.3871C96.5601 66.8428 96.4889 67.3103 96.4532 67.7777C96.4295 67.9063 96.6195 67.8946 96.6195 67.7777Z" fill="#F2F2F2"/>
<path d="M98.9712 62.099C99.6206 62.099 100.147 61.581 100.147 60.9421C100.147 60.3031 99.6206 59.7852 98.9712 59.7852C98.3218 59.7852 97.7954 60.3031 97.7954 60.9421C97.7954 61.581 98.3218 62.099 98.9712 62.099Z" fill="#F2F2F2"/>
<path d="M96.3942 67.673C95.4916 66.2824 94.8265 64.7633 94.4227 63.1623C94.3158 62.7183 94.2208 62.2625 94.1495 61.8185C94.1376 61.7717 94.0901 61.7367 94.0426 61.7484C93.9951 61.76 93.9595 61.7951 93.9595 61.8535C94.2089 63.5012 94.7433 65.1139 95.5272 66.598C95.741 67.007 95.9785 67.4159 96.2398 67.8133C96.3111 67.8834 96.4536 67.7782 96.3942 67.673Z" fill="#F2F2F2"/>
<path d="M93.959 62.0169C94.6084 62.0169 95.1349 61.499 95.1349 60.86C95.1349 60.2211 94.6084 59.7031 93.959 59.7031C93.3096 59.7031 92.7832 60.2211 92.7832 60.86C92.7832 61.499 93.3096 62.0169 93.959 62.0169Z" fill="#F2F2F2"/>
<path d="M20.2384 67.7312C20.0009 65.1954 19.3358 62.7296 18.2906 60.4042C17.9937 59.7614 17.673 59.1304 17.3167 58.5111C17.281 58.4409 17.3048 58.3591 17.376 58.3241C17.4473 58.289 17.5304 58.3124 17.5661 58.3708C18.8488 60.6145 19.7515 63.0568 20.2266 65.5927C20.3572 66.3055 20.4641 67.0183 20.5235 67.7312C20.5472 67.9181 20.2622 67.9181 20.2384 67.7312Z" fill="#F2F2F2"/>
<path d="M16.6277 58.9665C17.6313 58.9665 18.4449 58.166 18.4449 57.1785C18.4449 56.1911 17.6313 55.3906 16.6277 55.3906C15.6241 55.3906 14.8105 56.1911 14.8105 57.1785C14.8105 58.166 15.6241 58.9665 16.6277 58.9665Z" fill="#F2F2F2"/>
<path d="M20.0602 67.7777C19.9058 66.1417 19.4782 64.529 18.7893 63.0215C18.5993 62.6009 18.3855 62.1918 18.1598 61.7945C18.1361 61.7478 18.1479 61.6894 18.1955 61.666C18.243 61.6426 18.2905 61.6543 18.3142 61.701C19.1456 63.1618 19.7276 64.7394 20.0364 66.3871C20.1195 66.8428 20.1908 67.3103 20.2264 67.7777C20.2502 67.9063 20.072 67.8946 20.0602 67.7777Z" fill="#F2F2F2"/>
<path d="M17.7085 62.099C18.3579 62.099 18.8844 61.581 18.8844 60.9421C18.8844 60.3031 18.3579 59.7852 17.7085 59.7852C17.0592 59.7852 16.5327 60.3031 16.5327 60.9421C16.5327 61.581 17.0592 62.099 17.7085 62.099Z" fill="#F2F2F2"/>
<path d="M20.2861 67.673C21.1888 66.2824 21.8539 64.7633 22.2577 63.1623C22.3646 62.7183 22.4596 62.2625 22.5309 61.8185C22.5428 61.7717 22.5903 61.7367 22.6378 61.7484C22.6853 61.76 22.7209 61.7951 22.7209 61.8535C22.4715 63.5012 21.937 65.1139 21.1531 66.598C20.9393 67.007 20.7018 67.4159 20.4405 67.8133C20.3692 67.8834 20.2267 67.7782 20.2861 67.673Z" fill="#F2F2F2"/>
<path d="M22.7207 62.0169C23.3701 62.0169 23.8966 61.499 23.8966 60.86C23.8966 60.2211 23.3701 59.7031 22.7207 59.7031C22.0714 59.7031 21.5449 60.2211 21.5449 60.86C21.5449 61.499 22.0714 62.0169 22.7207 62.0169Z" fill="#F2F2F2"/>
<path d="M89.6004 44.3357L89.6242 65.3819C89.6242 66.1999 88.9591 66.8543 88.1277 66.8543L79.2437 66.866C81.7497 62.2618 83.1631 55.0165 83.1512 49.4307C83.1512 47.2221 82.9255 45.0251 82.4742 42.8632L88.092 42.8516C88.9234 42.8632 89.6004 43.5177 89.6004 44.3357Z" fill="#FF7330"/>
<path d="M76.5831 41.4613L60.751 41.4028L62.295 36.3662C62.5444 35.5482 63.3045 34.999 64.1716 34.9873H64.1834L73.2219 35.0224C74.0889 35.0341 74.849 35.595 75.0984 36.413L76.5831 41.4613Z" fill="#353535"/>
<path d="M85.4196 39.7314C84.5051 39.7314 83.7568 40.4677 83.7568 41.3675H87.0824C87.0824 40.4677 86.3342 39.7314 85.4196 39.7314Z" fill="#FF7330"/>
<path d="M90.5269 67.8947H46.8194C45.7029 67.8947 44.8003 67.0066 44.8003 65.9081V43.2376C44.8003 42.1391 45.7029 41.251 46.8194 41.251H90.5269C91.6433 41.251 92.546 42.1391 92.546 43.2376V65.9081C92.546 67.0066 91.6433 67.8947 90.5269 67.8947ZM46.8194 41.4847C45.8336 41.4847 45.0378 42.2676 45.0378 43.2376V65.9081C45.0378 66.8781 45.8336 67.661 46.8194 67.661H90.5269C91.5127 67.661 92.3085 66.8781 92.3085 65.9081V43.2376C92.3085 42.2676 91.5127 41.4847 90.5269 41.4847H46.8194Z" fill="#3F3D56"/>
<path d="M70.5734 39.5569H66.7727C66.2145 39.5569 65.7632 39.1128 65.7632 38.5636C65.7632 38.0144 66.2145 37.5703 66.7727 37.5703H70.5734C71.1316 37.5703 71.5829 38.0144 71.5829 38.5636C71.5829 39.1128 71.1316 39.5569 70.5734 39.5569Z" fill="white"/>
<path d="M68.6731 63.4539C63.6847 63.4539 59.6465 59.4807 59.6465 54.5727C59.6465 49.6646 63.6847 45.6914 68.6731 45.6914C73.6614 45.6914 77.6996 49.6646 77.6996 54.5727C77.6996 59.4807 73.6614 63.4539 68.6731 63.4539ZM68.6731 45.9251C63.8153 45.9251 59.884 49.7931 59.884 54.5727C59.884 59.3522 63.8153 63.2202 68.6731 63.2202C73.5308 63.2202 77.4621 59.3522 77.4621 54.5727C77.4621 49.8048 73.5308 45.9251 68.6731 45.9251Z" fill="#3F3D56"/>
<path d="M68.6729 60.4163C65.3948 60.4163 62.7344 57.7987 62.7344 54.5734C62.7344 51.3481 65.3948 48.7305 68.6729 48.7305C71.951 48.7305 74.6114 51.3481 74.6114 54.5734C74.6114 57.7987 71.951 60.4163 68.6729 60.4163ZM68.6729 48.9642C65.5255 48.9642 62.9719 51.4766 62.9719 54.5734C62.9719 57.6701 65.5255 60.1826 68.6729 60.1826C71.8203 60.1826 74.3739 57.6701 74.3739 54.5734C74.3739 51.4766 71.8203 48.9642 68.6729 48.9642Z" fill="#3F3D56"/>
<path d="M68.6729 59.014C71.1656 59.014 73.1862 57.0259 73.1862 54.5734C73.1862 52.1209 71.1656 50.1328 68.6729 50.1328C66.1803 50.1328 64.1597 52.1209 64.1597 54.5734C64.1597 57.0259 66.1803 59.014 68.6729 59.014Z" fill="#CCCCCC"/>
<path d="M65.9414 54.5728C65.9414 53.1121 67.0341 51.8851 68.4949 51.6748C66.8678 51.4527 65.3713 52.5629 65.1337 54.1521C64.908 55.7531 66.0364 57.2255 67.6517 57.4592C67.9248 57.4943 68.2099 57.4943 68.4831 57.4592C67.034 57.2606 65.9414 56.0336 65.9414 54.5728Z" fill="white"/>
<path d="M88.3887 41.4846H82.4502V41.3677C82.4502 39.7551 83.7804 38.4463 85.4195 38.4463C87.0585 38.4463 88.3887 39.7551 88.3887 41.3677V41.4846ZM82.6877 41.2509H88.1512C88.0799 39.7668 86.8091 38.6216 85.3007 38.68C83.8873 38.7384 82.7471 39.8603 82.6877 41.2509Z" fill="#3F3D56"/>
<path d="M47.7692 44.7571C47.116 44.7571 46.5815 44.2312 46.5815 43.5885C46.5815 42.9458 47.116 42.4199 47.7692 42.4199C48.4225 42.4199 48.957 42.9458 48.957 43.5885C48.957 44.2312 48.4225 44.7571 47.7692 44.7571ZM47.7692 42.6536C47.2467 42.6536 46.8191 43.0743 46.8191 43.5885C46.8191 44.1027 47.2467 44.5234 47.7692 44.5234C48.2918 44.5234 48.7194 44.1027 48.7194 43.5885C48.7194 43.0743 48.2918 42.6536 47.7692 42.6536Z" fill="#3F3D56"/>
<path d="M47.7696 44.1725C48.0976 44.1725 48.3635 43.9109 48.3635 43.5882C48.3635 43.2655 48.0976 43.0039 47.7696 43.0039C47.4417 43.0039 47.1758 43.2655 47.1758 43.5882C47.1758 43.9109 47.4417 44.1725 47.7696 44.1725Z" fill="#FF7330"/>
<path d="M50.8575 44.1725C51.1855 44.1725 51.4514 43.9109 51.4514 43.5882C51.4514 43.2655 51.1855 43.0039 50.8575 43.0039C50.5295 43.0039 50.2637 43.2655 50.2637 43.5882C50.2637 43.9109 50.5295 44.1725 50.8575 44.1725Z" fill="#CCCCCC"/>
<path d="M53.9454 44.1725C54.2734 44.1725 54.5393 43.9109 54.5393 43.5882C54.5393 43.2655 54.2734 43.0039 53.9454 43.0039C53.6174 43.0039 53.3516 43.2655 53.3516 43.5882C53.3516 43.9109 53.6174 44.1725 53.9454 44.1725Z" fill="#CCCCCC"/>
<path d="M50.8576 44.7571C50.2044 44.7571 49.6699 44.2312 49.6699 43.5885C49.6699 42.9458 50.2044 42.4199 50.8576 42.4199C51.5109 42.4199 52.0453 42.9458 52.0453 43.5885C52.0453 44.2312 51.5109 44.7571 50.8576 44.7571ZM50.8576 42.6536C50.335 42.6536 49.9075 43.0743 49.9075 43.5885C49.9075 44.1027 50.335 44.5234 50.8576 44.5234C51.3802 44.5234 51.8078 44.1027 51.8078 43.5885C51.8078 43.0743 51.3802 42.6536 50.8576 42.6536Z" fill="#3F3D56"/>
<path d="M53.9455 44.7571C53.2923 44.7571 52.7578 44.2312 52.7578 43.5885C52.7578 42.9458 53.2923 42.4199 53.9455 42.4199C54.5988 42.4199 55.1332 42.9458 55.1332 43.5885C55.1332 44.2312 54.5988 44.7571 53.9455 44.7571ZM53.9455 42.6536C53.4229 42.6536 52.9954 43.0743 52.9954 43.5885C52.9954 44.1027 53.4229 44.5234 53.9455 44.5234C54.4681 44.5234 54.8957 44.1027 54.8957 43.5885C54.8957 43.0743 54.4681 42.6536 53.9455 42.6536Z" fill="#3F3D56"/>
<path d="M60.3591 51.4062H44.9189V51.64H60.3591V51.4062Z" fill="#3F3D56"/>
<path d="M59.979 56.1035H44.9189V56.3372H59.979V56.1035Z" fill="#3F3D56"/>
<path d="M92.427 51.4062H76.9868V51.64H92.427V51.4062Z" fill="#3F3D56"/>
<path d="M92.4033 56.1035H77.3433V56.3372H92.4033V56.1035Z" fill="#3F3D56"/>
<path d="M32.4006 28.3387C31.4385 27.9063 30.8091 26.6559 30.8447 25.4289C30.8803 24.2019 31.5336 23.0567 32.4481 22.4724C33.3507 21.9114 34.4672 21.818 35.4411 22.2503C36.415 22.6593 37.7215 22.7645 38.3035 23.7812C38.7548 24.5641 38.5885 26.2936 38.2678 27.1584C37.9947 27.9063 37.3177 28.327 36.6644 28.5607C35.1917 29.0866 33.5764 28.958 32.2106 28.2101" fill="black"/>
<path d="M26.5332 66.457L25.1436 66.0129L26.2244 60.5439L28.2672 61.1984L26.5332 66.457Z" fill="#FFB8B8"/>
<path d="M24.2884 65.3123L26.9607 66.1653L26.4144 67.8248L22.0674 66.4341C22.3643 65.5109 23.362 65.0084 24.2884 65.3123Z" fill="#2F2E41"/>
<path d="M38.9329 66.4923H37.4721L36.7832 60.9648H38.9329V66.4923Z" fill="#FFB8B8"/>
<path d="M36.4269 66.084H39.2299V67.8252H34.6572C34.6572 66.8553 35.453 66.084 36.4269 66.084Z" fill="#2F2E41"/>
<path d="M38.8496 64.2256C38.8377 64.2256 38.8377 64.2256 38.8258 64.2256L37.2105 64.1555C36.9255 64.1438 36.7117 63.9101 36.6998 63.6413L36.486 47.9355C36.486 47.8421 36.4029 47.7603 36.3079 47.7603C36.2485 47.7603 36.1891 47.7953 36.1535 47.8537L27.602 63.7933C27.4951 64.0036 27.2576 64.1088 27.0319 64.062L25.4285 63.7582C25.1435 63.6998 24.9534 63.431 25.0009 63.1389C25.0009 63.1155 25.0128 63.0921 25.0247 63.0571L31.2483 45.6919L31.7233 40.5618C31.7471 40.3164 31.9371 40.1177 32.1865 40.0943C34.0037 39.8723 36.5335 38.4116 37.5431 37.7922C37.6737 37.7104 37.8163 37.687 37.9588 37.7338C38.1013 37.7688 38.2201 37.8623 38.2913 37.9909C40.7142 42.4198 41.6407 47.4915 40.9399 52.4813L39.3721 63.7582C39.3484 64.0387 39.1227 64.2256 38.8496 64.2256Z" fill="#FF7330"/>
<path d="M34.5145 29.5414C36.1282 29.5414 37.4363 28.2544 37.4363 26.6667C37.4363 25.079 36.1282 23.792 34.5145 23.792C32.9009 23.792 31.5928 25.079 31.5928 26.6667C31.5928 28.2544 32.9009 29.5414 34.5145 29.5414Z" fill="#FFB8B8"/>
<path d="M31.6049 41.8116L30.726 35.6415C30.2747 33.6899 31.5336 31.7501 33.5171 31.306C35.5006 30.8736 37.4722 32.089 37.9235 34.0522C38.1729 35.1974 38.6836 36.588 38.4936 38.0838C37.1871 41.6246 34.8355 42.7231 31.6049 41.8116Z" fill="#353535"/>
<path d="M35.4648 32.2294H33.3269C33.03 32.2294 32.7925 31.9957 32.7925 31.7036V31.0024C32.7925 30.7103 33.03 30.4766 33.3269 30.4766H35.4648C35.7617 30.4766 35.9993 30.7103 35.9993 31.0024V31.7036C35.9993 31.9957 35.7617 32.2294 35.4648 32.2294Z" fill="#353535"/>
<path d="M46.2966 43.9036C46.5104 43.2492 46.1541 42.5363 45.4771 42.3143C45.4059 42.2909 45.3346 42.2792 45.2633 42.2676L38.6122 32.8955L36.6406 34.812L43.8025 43.4245C43.755 44.1139 44.2775 44.7216 44.9902 44.78C45.5721 44.8151 46.1185 44.4528 46.2966 43.9036Z" fill="#FFB8B8"/>
<path d="M40.6907 35.7588L38.2915 37.3364C38.0302 37.5117 37.6739 37.4416 37.4958 37.1845C37.4839 37.1611 37.472 37.1378 37.4601 37.1144L36.2249 34.5435C35.7379 33.819 35.9399 32.849 36.6762 32.3816C37.4007 31.9142 38.3865 32.1011 38.8735 32.814L40.7976 34.9058C41.0114 35.1395 40.9876 35.49 40.762 35.7004C40.7382 35.7238 40.7144 35.7471 40.6907 35.7588Z" fill="#353535"/>
<path d="M22.7919 31.3065C22.8037 31.3649 22.8156 31.4351 22.8156 31.4935L27.9227 34.3916L29.158 33.6904L30.4763 35.3965L28.3978 36.8456C28.0534 37.091 27.5902 37.0793 27.2576 36.8222L21.9961 32.7439C21.3547 32.9776 20.6302 32.6504 20.3927 32.0193C20.1552 31.3883 20.4877 30.6755 21.1291 30.4418C21.7704 30.208 22.4949 30.5352 22.7325 31.1663C22.7681 31.213 22.78 31.2598 22.7919 31.3065Z" fill="#FFB8B8"/>
<path d="M29.4076 36.4946L28.1248 33.9471C27.9823 33.6666 28.1011 33.3277 28.3861 33.1875C28.4099 33.1758 28.4336 33.1641 28.4693 33.1524L31.2129 32.276C31.9968 31.9021 32.9469 32.2176 33.3389 33.0005C33.7189 33.7718 33.3983 34.7066 32.6144 35.0923L30.2508 36.7049C29.9895 36.8802 29.6332 36.8218 29.4551 36.5647C29.4313 36.5413 29.4194 36.5179 29.4076 36.4946Z" fill="#353535"/>
<path d="M36.4624 23.0562C36.6762 23.0912 36.89 22.9744 36.9731 22.7757C37.0562 22.577 37.0325 22.355 36.9256 22.1797C36.8187 22.0044 36.6643 21.8525 36.4743 21.7474C36.2605 21.6071 36.0229 21.5253 35.7616 21.502C35.5003 21.4903 35.2509 21.5838 35.0728 21.759C34.8946 21.946 34.8471 22.2148 34.954 22.4485C35.0609 22.6472 35.2866 22.764 35.5003 22.8458C35.9279 22.9977 36.3911 23.0562 36.8543 23.0211" fill="#2F2E41"/>
<path d="M37.4008 27.976C36.89 27.9994 36.9732 26.9359 36.8188 26.4568C36.6644 25.9777 36.4387 25.4051 35.9399 25.3233C35.5242 25.2532 35.156 25.5453 34.7997 25.7557C34.1583 26.1296 33.3388 26.2699 32.6618 25.9543C31.9848 25.6388 31.581 24.7741 31.9136 24.1197C32.1155 23.7574 32.4599 23.4886 32.8637 23.3835C33.2675 23.2783 33.6951 23.2666 34.1108 23.325C35.0372 23.4419 35.9161 23.7457 36.7119 24.2365C37.2582 24.5754 37.7689 25.0312 37.9352 25.6388C38.1015 26.2465 38.1609 27.9176 37.5314 28.0227L37.4008 27.976Z" fill="black"/>
<path d="M36.0707 21.572C35.6906 21.0929 35.8332 20.3333 36.2845 19.9126C36.7358 19.4919 37.4009 19.3517 38.0185 19.4101C39.2656 19.5386 40.3583 20.2982 40.869 21.4318C41.261 22.3082 41.261 23.3249 41.6054 24.213C42.3655 26.1412 44.5866 27.0994 46.5463 26.3515C46.6175 26.3281 46.6888 26.2931 46.7601 26.258C47.3777 25.9776 47.9596 25.4283 47.924 24.7622C48.3159 26.2346 47.6152 27.9291 46.285 28.7121C45.5011 29.1678 44.5866 29.3314 43.6839 29.4366C43.09 29.5067 42.4962 29.5534 41.9142 29.4132C41.1066 29.2145 40.4415 28.6302 40.0376 27.9174C39.6338 27.2046 39.4675 26.3749 39.4675 25.5686C39.4675 24.9375 39.5507 24.2948 39.5032 23.6638C39.4557 23.0327 39.2656 22.3783 38.8024 21.9342C38.3392 21.4902 37.5435 21.35 37.0327 21.7356C36.8308 21.8875 36.6764 22.1212 36.4389 22.2381C36.2014 22.3549 35.845 22.2615 35.8213 22.0044L36.0707 21.572Z" fill="black"/>
<path d="M24.8943 31.3299H0.831393C0.368188 31.3299 0 30.9677 0 30.5119V17.1784C0 16.7226 0.368188 16.3604 0.831393 16.3604H24.8943C25.3575 16.3604 25.7257 16.7226 25.7257 17.1784V30.5119C25.7138 30.956 25.3456 31.3299 24.8943 31.3299ZM0.831393 16.5473C0.475082 16.5473 0.190033 16.8278 0.190033 17.1784V30.5119C0.190033 30.8625 0.475082 31.143 0.831393 31.143H24.8943C25.2506 31.143 25.5356 30.8625 25.5356 30.5119V17.1784C25.5356 16.8278 25.2506 16.5473 24.8943 16.5473H0.831393Z" fill="#3F3D56"/>
<path d="M8.76514 25.7202C10.6674 25.7202 12.2095 24.2029 12.2095 22.3313C12.2095 20.4596 10.6674 18.9424 8.76514 18.9424C6.86288 18.9424 5.3208 20.4596 5.3208 22.3313C5.3208 24.2029 6.86288 25.7202 8.76514 25.7202Z" fill="#E6E6E6"/>
<path d="M22.0198 28.3149L17.9816 21.4319C17.8985 21.2917 17.7322 21.245 17.5897 21.3268C17.5422 21.3501 17.5066 21.3852 17.4828 21.4319L15.0124 25.6272L11.3424 19.3635C11.2355 19.1883 11.0098 19.1298 10.8435 19.235C10.7842 19.2701 10.7367 19.3168 10.7129 19.3635L5.53451 28.1864C5.42762 28.3616 5.49888 28.5837 5.66516 28.6772C5.72454 28.7122 5.78393 28.7239 5.85519 28.7239H21.7823C21.9367 28.7239 22.0673 28.5954 22.0673 28.4434C22.0555 28.4084 22.0436 28.35 22.0198 28.3149Z" fill="#FF7330"/>
<path d="M3.21885 17.9961H1.74609V19.4452H3.21885V17.9961Z" fill="#3F3D56"/>
<path d="M34.2534 11.6975H15.4521C15.0958 11.6975 14.7988 11.4171 14.7988 11.0548V0.642722C14.7988 0.292146 15.0839 0 15.4521 0H34.2534C34.6097 0 34.9066 0.280461 34.9066 0.642722V11.0548C34.9066 11.4054 34.6097 11.6975 34.2534 11.6975ZM15.4521 0.14023C15.1789 0.14023 14.9532 0.362262 14.9532 0.631036V11.0431C14.9532 11.3119 15.1789 11.5339 15.4521 11.5339H34.2534C34.5266 11.5339 34.7522 11.3119 34.7522 11.0431V0.642722C34.7522 0.373947 34.5266 0.151916 34.2534 0.151916L15.4521 0.14023Z" fill="#CCCCCC"/>
<path d="M21.652 7.30349C23.1344 7.30349 24.3362 6.12107 24.3362 4.66249C24.3362 3.2039 23.1344 2.02148 21.652 2.02148C20.1695 2.02148 18.9678 3.2039 18.9678 4.66249C18.9678 6.12107 20.1695 7.30349 21.652 7.30349Z" fill="#F2F2F2"/>
<path d="M32.0085 9.33669L28.8492 3.9612C28.7899 3.85602 28.6473 3.82097 28.5404 3.8794C28.5048 3.90277 28.4811 3.92614 28.4573 3.9612L26.5451 7.24492L23.6709 2.34855C23.5877 2.20832 23.4096 2.16158 23.2789 2.24338C23.2314 2.26675 23.1958 2.30181 23.172 2.34855L19.122 9.2432C19.0388 9.38343 19.0863 9.54704 19.2289 9.62884C19.2764 9.65221 19.3239 9.66389 19.3714 9.66389H31.8185C31.9373 9.66389 32.0442 9.57041 32.0442 9.44186C32.0442 9.40681 32.0323 9.37175 32.0085 9.33669Z" fill="#E6E6E6"/>
<path d="M17.3288 1.27344H16.1768V2.40697H17.3288V1.27344Z" fill="#CCCCCC"/>
</svg>
